<?xml version="1.0" encoding="utf-8"?>
<!-- Generator: Adobe Illustrator 21.1.0, SVG Export Plug-In . SVG Version: 6.00 Build 0)  -->
<svg version="1.1" id="Layer_1" xmlns="http://www.w3.org/2000/svg" xmlns:xlink="http://www.w3.org/1999/xlink" x="0px" y="0px"
	 viewBox="0 0 769.4 29.9" style="enable-background:new 0 0 769.4 29.9;" xml:space="preserve">
<style type="text/css">
	.st0{fill:#AF9711;}
</style>
<g>
	<path class="st0" d="M768.4,12.6L756.8,1c-1.1-1.1-3-1.3-4.2-0.2c-1.3,1.2-1.3,3.1-0.1,4.3l5.3,5.3c0.6,0.6,0.2,1.6-0.7,1.6H738
		c-1.6,0-3.1,1.2-3.1,2.8c-0.1,1.7,1.3,3.1,3,3.1h19.3c0.8,0,1.3,1,0.7,1.6l-5.2,5.2c-1.1,1.1-1.3,3-0.2,4.2
		c1.2,1.3,3.1,1.3,4.3,0.1l11.8-11.8C769.7,16,769.7,13.9,768.4,12.6z"/>
	<path class="st0" d="M726.7,12h-3.4c-1.6,0-3,1.3-3,3s1.3,3,3,3h3.4c1.6,0,3-1.3,3-3S728.4,12,726.7,12z"/>
	<path class="st0" d="M713.1,12h-0.3c-1.6,0-3,1.3-3,3s1.3,3,3,3h0.3c1.6,0,3-1.3,3-3S714.8,12,713.1,12z"/>
</g>
<g>
	<path class="st0" d="M1,17.3L12.6,29c1.1,1.1,3,1.3,4.2,0.2c1.3-1.2,1.3-3.1,0.1-4.3l-5.3-5.3C11.1,19,11.5,18,12.4,18h19.1
		c1.6,0,3.1-1.2,3.1-2.8c0.1-1.7-1.3-3.1-3-3.1H12.4c-0.8,0-1.3-1-0.7-1.6l5.2-5.2c1.1-1.1,1.3-3,0.2-4.2C15.9-0.2,14-0.2,12.8,1
		L1,12.7C-0.3,14-0.3,16,1,17.3z"/>
	<path class="st0" d="M42.7,18h3.4c1.6,0,3-1.3,3-3s-1.3-3-3-3h-3.4c-1.6,0-3,1.3-3,3S41,18,42.7,18z"/>
	<path class="st0" d="M56.3,18h0.3c1.6,0,3-1.3,3-3s-1.3-3-3-3h-0.3c-1.6,0-3,1.3-3,3S54.6,18,56.3,18z"/>
</g>
<g>
	<path class="st0" d="M345.6,1.7h5.1c2.9,0,4.4,1.6,4.4,4.8v13.3c0,3.2-1.5,4.8-4.6,4.8h-4.9V1.7z M349,4.9v16.5h1.5
		c1,0,1.4-0.5,1.4-1.6V6.5c0-1-0.5-1.6-1.4-1.6H349z"/>
	<path class="st0" d="M358,4.3h8.6v2.9h-5.3V13h4.5v2.9h-4.5v5.8h5.3v2.9H358V4.3z"/>
	<path class="st0" d="M368.8,8.3c0-2.8,1.6-4.3,4.8-4.3c3.2,0,4.8,1.4,4.8,4.3V11H375V8.3c0-0.9-0.5-1.4-1.4-1.4h0
		c-1,0-1.4,0.5-1.4,1.4v1.8c0,0.9,1,2,3.1,3.3c2.1,1.3,3.1,2.9,3.1,4.7v2.6c0,2.9-1.6,4.3-4.8,4.3c-3.2,0-4.8-1.4-4.8-4.3V18h3.3
		v2.7c0,0.9,0.5,1.4,1.5,1.4c1,0,1.4-0.5,1.4-1.4v-2.3c0-1-1-2.1-3.1-3.4c-2.1-1.3-3.1-2.9-3.1-4.8V8.3z"/>
	<path class="st0" d="M381.1,24.6V4.3h3.3v17.4h5.3v2.9H381.1z"/>
	<path class="st0" d="M391.8,4.3h3.3v20.3h-3.3V4.3z"/>
	<path class="st0" d="M405.9,6.1l-4.5,15.7h4.7v2.9h-8.4v-1.8l4.5-15.7h-4.3V4.3h8.1V6.1z"/>
	<path class="st0" d="M417.8,17.4l1.1,7.2h-3.4l-0.6-4.3h-3.4l-0.7,4.3h-3.3l1.1-7.2l2.3-13.1h4.5L417.8,17.4z M414.4,17.4L413.2,9
		l-1.3,8.5H414.4z"/>
</g>
</svg>
