<?xml version="1.0" encoding="utf-8"?>
<!-- Generator: Adobe Illustrator 21.1.0, SVG Export Plug-In . SVG Version: 6.00 Build 0)  -->
<svg version="1.1" id="Layer_1" xmlns="http://www.w3.org/2000/svg" xmlns:xlink="http://www.w3.org/1999/xlink" x="0px" y="0px"
	 viewBox="0 0 635.4 89.7" style="enable-background:new 0 0 635.4 89.7;" xml:space="preserve">
<style type="text/css">
	.st0{fill:#B89700;}
</style>
<polygon class="st0" points="635.4,70.9 635.4,0 635.3,0 349.5,0 348.5,0 0,0 0,9.5 52.3,9.5 52.3,60.5 26.1,60.5 26.1,41.2 
	17.9,41.2 17.9,60.5 17.9,69.9 17.9,69.9 26.1,69.9 26.1,69.9 52.3,69.9 52.3,69.9 61.8,69.9 61.8,69.9 61.8,60.5 61.8,9.5 
	124.4,9.5 124.4,60 98.2,60 98.2,40.8 90,40.8 90,60 90,69.4 98.2,69.4 124.4,69.4 124.4,69.4 133.9,69.4 133.9,69.4 133.9,69.4 
	133.9,60 133.9,60 133.9,9.5 196.2,9.5 196.2,60.1 170,60.1 170,40.9 161.8,40.9 161.8,60.1 161.8,69.6 170,69.6 196.2,69.6 
	205.7,69.6 205.7,60.1 205.7,9.5 268.3,9.5 268.3,61.4 242.1,61.4 242.1,42.1 233.9,42.1 233.9,61.4 233.9,70.9 233.9,70.9 
	242.1,70.9 242.1,70.9 268.3,70.9 268.3,70.9 277.8,70.9 277.8,70.9 277.8,61.4 277.8,9.5 340.1,9.5 340.1,61.4 313.8,61.4 
	313.8,42.1 305.6,42.1 305.6,61.4 305.6,70.9 305.6,70.9 313.8,70.9 313.8,70.9 340.1,70.9 340.1,70.9 349.5,70.9 349.5,70.9 
	349.5,61.4 349.5,9.5 411.2,9.5 411.2,60 384.9,60 384.9,40.8 376.7,40.8 376.7,60 376.7,69.4 384.9,69.4 411.2,69.4 411.2,69.4 
	420.7,69.4 420.7,69.4 420.7,69.4 420.7,60 420.7,60 420.7,9.5 483,9.5 483,60.1 456.7,60.1 456.7,40.9 448.5,40.9 448.5,60.1 
	448.5,69.6 456.7,69.6 483,69.6 492.5,69.6 492.5,60.1 492.5,9.5 555.1,9.5 555.1,61.4 528.8,61.4 528.8,42.1 520.6,42.1 
	520.6,61.4 520.6,70.9 520.6,70.9 528.8,70.9 528.8,70.9 555.1,70.9 555.1,70.9 564.6,70.9 564.6,70.9 564.6,61.4 564.6,9.5 
	626.8,9.5 626.8,61.4 600.6,61.4 600.6,42.1 592.3,42.1 592.3,61.4 592.3,70.9 592.3,70.9 600.6,70.9 600.6,70.9 626.8,70.9 
	626.8,70.9 "/>
<polygon class="st0" points="635.4,80.2 582.4,80.2 582.4,30.4 608.7,30.4 608.7,49.6 616.9,49.6 616.9,30.4 616.9,20.9 616.9,20.9 
	608.7,20.9 608.7,20.9 582.4,20.9 582.4,20.9 572.9,20.9 572.9,20.9 572.9,30.4 572.9,80.2 512.2,80.2 512.2,31.6 538.5,31.6 
	538.5,50.8 546.7,50.8 546.7,31.6 546.7,22.1 538.5,22.1 512.2,22.1 502.7,22.1 502.7,31.6 502.7,80.2 440.1,80.2 440.1,30.3 
	466.4,30.3 466.4,49.6 474.6,49.6 474.6,30.3 474.6,20.8 466.4,20.8 440.1,20.8 430.6,20.8 430.6,20.8 430.6,30.3 430.6,30.3 
	430.6,80.2 368.3,80.2 368.3,30.1 394.6,30.1 394.6,49.3 402.8,49.3 402.8,30.1 402.8,20.6 402.8,20.6 394.6,20.6 394.6,20.6 
	368.3,20.6 368.3,20.6 358.8,20.6 358.8,20.6 358.8,30.1 358.8,80.2 349.5,80.2 348.5,80.2 295.7,80.2 295.7,30.4 321.9,30.4 
	321.9,49.6 330.2,49.6 330.2,30.4 330.2,20.9 330.2,20.9 321.9,20.9 321.9,20.9 295.7,20.9 295.7,20.9 286.2,20.9 286.2,20.9 
	286.2,30.4 286.2,80.2 225.5,80.2 225.5,31.6 251.7,31.6 251.7,50.8 260,50.8 260,31.6 260,22.1 251.7,22.1 225.5,22.1 216,22.1 
	216,31.6 216,80.2 153.4,80.2 153.4,30.3 179.6,30.3 179.6,49.6 187.9,49.6 187.9,30.3 187.9,20.8 179.6,20.8 153.4,20.8 
	143.9,20.8 143.9,20.8 143.9,30.3 143.9,30.3 143.9,80.2 81.6,80.2 81.6,30.1 107.8,30.1 107.8,49.3 116.1,49.3 116.1,30.1 
	116.1,20.6 116.1,20.6 107.8,20.6 107.8,20.6 81.6,20.6 81.6,20.6 72.1,20.6 72.1,20.6 72.1,30.1 72.1,80.2 9.5,80.2 9.5,30.1 
	35.7,30.1 35.7,49.3 44,49.3 44,30.1 44,20.6 44,20.6 35.7,20.6 35.7,20.6 9.5,20.6 9.5,20.6 0,20.6 0,20.6 0,30.1 0,80.2 0,89.4 
	0,89.7 143.9,89.7 143.9,89.7 153.4,89.7 153.4,89.7 348.5,89.7 349.5,89.7 430.6,89.7 430.6,89.7 440.1,89.7 440.1,89.7 
	635.4,89.7 "/>
</svg>
