<?xml version="1.0" encoding="utf-8"?>
<!-- Generator: Adobe Illustrator 21.1.0, SVG Export Plug-In . SVG Version: 6.00 Build 0)  -->
<svg version="1.1" id="Layer_1" xmlns="http://www.w3.org/2000/svg" xmlns:xlink="http://www.w3.org/1999/xlink" x="0px" y="0px"
	 viewBox="0 0 44 253" style="enable-background:new 0 0 44 253;" xml:space="preserve">
<style type="text/css">
	.st0{fill:#FFFFFF;}
</style>
<g>
	<path class="st0" d="M6.2,177.7v-4.4c0-3.6,1.9-5,6.8-5h12.7c4.8,0,6.6,1.4,6.6,4.9v4.5H6.2z M29.6,174.7v-1.4
		c0-1.6-0.6-2.1-3.3-2.1H12.5c-2.7,0-3.5,0.5-3.5,2.1v1.4H29.6z"/>
	<path class="st0" d="M6.2,160.8v-8.4H9v5.4h8.6v-4.7h2.7v4.7h9.3V152h2.8v8.8H6.2z"/>
	<path class="st0" d="M22.9,142.9h3c2.7,0,4-0.7,4-2.2c0-1.3-1.2-1.9-3.6-1.9c-2.9,0-3.9,0.9-5.8,2.7c-3,2.8-4.5,4.2-8.5,4.2
		c-3.9,0-6.1-1.7-6.1-4.8c0-3,2.2-4.6,6.1-4.6h3v2.8h-2c-3.3,0-4.4,0.5-4.4,1.8c0,1.3,0.9,1.8,2.9,1.8c2.7,0,3.5-0.4,6.3-3.1
		l0.8-0.8c2.5-2.4,4.1-3,7.3-3c3,0,6.5,1.1,6.5,4.8c0,3.4-2.2,5.1-6.7,5.1h-3V142.9z"/>
	<path class="st0" d="M6.2,128.5v-3h23.4v-5.4h2.8v8.4H6.2z"/>
	<path class="st0" d="M6.2,113.5v-3h26.1v3H6.2z"/>
	<path class="st0" d="M6.2,103.4v-7.7h2.6l20.7,5.1v-5.4h2.8v8.4h-2.6L8.9,98.8v4.7H6.2z"/>
	<path class="st0" d="M6.2,86.3v-4l26.1-3.4v2.8l-7,0.8v3.6l7,0.8v2.8L6.2,86.3z M8.7,84.3l14,1.5v-3L8.7,84.3z"/>
</g>
<g>
	<g>
		<circle class="st0" cx="21.3" cy="47.1" r="3.9"/>
		<circle class="st0" cx="21.3" cy="57.9" r="3.9"/>
		<g>
			<path id="Chevron_Right" class="st0" d="M20.4,18.2L0.6,38c-0.9,0.9-0.9,2.3,0,3.1c0.9,0.9,2.3,0.9,3.1,0L22,23l18.2,18.2
				c0.9,0.9,2.3,0.9,3.1,0c0.9-0.9,0.9-2.3,0-3.1L23.6,18.2C22.7,17.4,21.3,17.4,20.4,18.2z"/>
		</g>
		<g>
			<path id="Chevron_Right_1_" class="st0" d="M20.4,0.6L0.6,20.4c-0.9,0.9-0.9,2.3,0,3.1c0.9,0.9,2.3,0.9,3.1,0L22,5.4l18.2,18.2
				c0.9,0.9,2.3,0.9,3.1,0c0.9-0.9,0.9-2.3,0-3.1L23.6,0.6C22.7-0.2,21.3-0.2,20.4,0.6z"/>
		</g>
	</g>
	<g>
		<circle class="st0" cx="21.3" cy="206.3" r="3.9"/>
		<circle class="st0" cx="21.3" cy="195.5" r="3.9"/>
		<g>
			<path id="Chevron_Right_3_" class="st0" d="M23.6,234.8L43.4,215c0.9-0.9,0.9-2.3,0-3.1c-0.9-0.9-2.3-0.9-3.1,0L22,230.1
				L3.8,211.9c-0.9-0.9-2.3-0.9-3.1,0c-0.9,0.9-0.9,2.3,0,3.1l19.8,19.8C21.3,235.6,22.7,235.6,23.6,234.8z"/>
		</g>
		<g>
			<path id="Chevron_Right_2_" class="st0" d="M23.6,252.4l19.8-19.8c0.9-0.9,0.9-2.3,0-3.1c-0.9-0.9-2.3-0.9-3.1,0L22,247.7
				L3.8,229.5c-0.9-0.9-2.3-0.9-3.1,0c-0.9,0.9-0.9,2.3,0,3.1l19.8,19.8C21.3,253.2,22.7,253.2,23.6,252.4z"/>
		</g>
	</g>
</g>
</svg>
